<svg width="210" height="147" viewBox="0 0 210 147" fill="none" xmlns="http://www.w3.org/2000/svg">
<rect width="210" height="147" fill="white"/>
<path d="M34.188 107.692C34.188 109.079 34.0233 110.344 33.694 111.488C33.3647 112.632 32.862 113.629 32.186 114.478C31.51 115.31 30.652 115.96 29.612 116.428L34.084 121.42H29.04L25.634 117.26C25.582 117.26 25.53 117.26 25.478 117.26C25.4433 117.26 25.4 117.26 25.348 117.26C23.84 117.26 22.5227 117.035 21.396 116.584C20.2867 116.116 19.368 115.466 18.64 114.634C17.9293 113.785 17.392 112.771 17.028 111.592C16.6813 110.413 16.508 109.105 16.508 107.666C16.508 105.742 16.82 104.069 17.444 102.648C18.0853 101.227 19.056 100.126 20.356 99.346C21.6733 98.5487 23.346 98.15 25.374 98.15C27.3847 98.15 29.04 98.5487 30.34 99.346C31.64 100.126 32.602 101.235 33.226 102.674C33.8673 104.095 34.188 105.768 34.188 107.692ZM20.642 107.692C20.642 108.992 20.8067 110.11 21.136 111.046C21.4653 111.982 21.9767 112.701 22.67 113.204C23.3633 113.707 24.256 113.958 25.348 113.958C26.4747 113.958 27.376 113.707 28.052 113.204C28.7453 112.701 29.248 111.982 29.56 111.046C29.8893 110.11 30.054 108.992 30.054 107.692C30.054 105.733 29.69 104.199 28.962 103.09C28.234 101.981 27.038 101.426 25.374 101.426C24.2647 101.426 23.3633 101.677 22.67 102.18C21.9767 102.683 21.4653 103.402 21.136 104.338C20.8067 105.274 20.642 106.392 20.642 107.692ZM53.1394 110.448C53.1394 111.731 52.8534 112.892 52.2814 113.932C51.7267 114.955 50.8774 115.769 49.7334 116.376C48.6067 116.965 47.1767 117.26 45.4434 117.26C42.982 117.26 41.11 116.636 39.8274 115.388C38.5447 114.123 37.9034 112.459 37.9034 110.396V98.436H41.8294V109.798C41.8294 111.323 42.1414 112.398 42.7654 113.022C43.3894 113.646 44.3167 113.958 45.5474 113.958C46.414 113.958 47.116 113.811 47.6534 113.516C48.1907 113.221 48.5807 112.762 48.8234 112.138C49.0834 111.514 49.2134 110.725 49.2134 109.772V98.436H53.1394V110.448ZM64.6277 117H56.1777V114.764L58.4397 113.724V101.712L56.1777 100.672V98.436H64.6277V100.672L62.3657 101.712V113.724L64.6277 114.764V117ZM84.2492 117H79.2572L71.1712 102.96H71.0672C71.0845 103.393 71.1018 103.835 71.1192 104.286C71.1365 104.719 71.1538 105.161 71.1712 105.612C71.2058 106.045 71.2318 106.487 71.2492 106.938C71.2665 107.371 71.2838 107.813 71.3012 108.264V117H67.7912V98.436H72.7572L80.8172 112.346H80.8952C80.8778 111.913 80.8605 111.488 80.8432 111.072C80.8258 110.639 80.8085 110.214 80.7912 109.798C80.7912 109.365 80.7825 108.94 80.7652 108.524C80.7478 108.091 80.7305 107.657 80.7132 107.224V98.436H84.2492V117ZM95.8836 117H87.4336V114.764L89.6956 113.724V101.712L87.4336 100.672V98.436H95.8836V100.672L93.6216 101.712V113.724L95.8836 114.764V117ZM109.993 111.852C109.993 112.944 109.724 113.897 109.187 114.712C108.65 115.527 107.87 116.159 106.847 116.61C105.842 117.043 104.611 117.26 103.155 117.26C102.514 117.26 101.881 117.217 101.257 117.13C100.65 117.043 100.061 116.922 99.489 116.766C98.9344 116.593 98.4057 116.385 97.903 116.142V112.476C98.787 112.857 99.697 113.213 100.633 113.542C101.586 113.854 102.531 114.01 103.467 114.01C104.108 114.01 104.62 113.923 105.001 113.75C105.4 113.577 105.686 113.343 105.859 113.048C106.05 112.753 106.145 112.415 106.145 112.034C106.145 111.566 105.98 111.167 105.651 110.838C105.339 110.509 104.914 110.205 104.377 109.928C103.84 109.633 103.224 109.321 102.531 108.992C102.098 108.784 101.63 108.541 101.127 108.264C100.624 107.969 100.139 107.614 99.671 107.198C99.2204 106.765 98.8477 106.245 98.553 105.638C98.2584 105.031 98.111 104.303 98.111 103.454C98.111 102.345 98.3624 101.4 98.865 100.62C99.385 99.8227 100.113 99.216 101.049 98.8C102.002 98.384 103.12 98.176 104.403 98.176C105.374 98.176 106.292 98.2887 107.159 98.514C108.043 98.7393 108.962 99.06 109.915 99.476L108.641 102.544C107.792 102.197 107.029 101.929 106.353 101.738C105.677 101.547 104.984 101.452 104.273 101.452C103.788 101.452 103.372 101.53 103.025 101.686C102.678 101.842 102.41 102.059 102.219 102.336C102.046 102.613 101.959 102.943 101.959 103.324C101.959 103.757 102.089 104.13 102.349 104.442C102.609 104.737 102.999 105.023 103.519 105.3C104.039 105.577 104.689 105.907 105.469 106.288C106.422 106.739 107.228 107.207 107.887 107.692C108.563 108.177 109.083 108.749 109.447 109.408C109.811 110.067 109.993 110.881 109.993 111.852ZM119.295 98.436C121.687 98.436 123.429 98.956 124.521 99.996C125.631 101.019 126.185 102.431 126.185 104.234C126.185 105.049 126.064 105.829 125.821 106.574C125.579 107.302 125.171 107.961 124.599 108.55C124.045 109.122 123.308 109.573 122.389 109.902C121.471 110.231 120.335 110.396 118.983 110.396H117.293V117H113.367V98.436H119.295ZM119.087 101.66H117.293V107.172H118.593C119.339 107.172 119.98 107.077 120.517 106.886C121.055 106.695 121.471 106.392 121.765 105.976C122.06 105.56 122.207 105.023 122.207 104.364C122.207 103.445 121.956 102.769 121.453 102.336C120.951 101.885 120.162 101.66 119.087 101.66ZM146.542 107.692C146.542 109.131 146.36 110.439 145.996 111.618C145.649 112.779 145.112 113.785 144.384 114.634C143.673 115.483 142.754 116.133 141.628 116.584C140.518 117.035 139.21 117.26 137.702 117.26C136.194 117.26 134.876 117.035 133.75 116.584C132.64 116.116 131.722 115.466 130.994 114.634C130.283 113.785 129.746 112.771 129.382 111.592C129.035 110.413 128.862 109.105 128.862 107.666C128.862 105.742 129.174 104.069 129.798 102.648C130.439 101.227 131.41 100.126 132.71 99.346C134.027 98.5487 135.7 98.15 137.728 98.15C139.738 98.15 141.394 98.5487 142.694 99.346C143.994 100.126 144.956 101.235 145.58 102.674C146.221 104.095 146.542 105.768 146.542 107.692ZM132.996 107.692C132.996 108.992 133.16 110.11 133.49 111.046C133.819 111.982 134.33 112.701 135.024 113.204C135.717 113.707 136.61 113.958 137.702 113.958C138.828 113.958 139.73 113.707 140.406 113.204C141.099 112.701 141.602 111.982 141.914 111.046C142.243 110.11 142.408 108.992 142.408 107.692C142.408 105.733 142.044 104.199 141.316 103.09C140.588 101.981 139.392 101.426 137.728 101.426C136.618 101.426 135.717 101.677 135.024 102.18C134.33 102.683 133.819 103.402 133.49 104.338C133.16 105.274 132.996 106.392 132.996 107.692ZM155.795 98.436C157.476 98.436 158.863 98.644 159.955 99.06C161.047 99.4587 161.862 100.074 162.399 100.906C162.936 101.721 163.205 102.752 163.205 104C163.205 104.849 163.04 105.595 162.711 106.236C162.399 106.86 161.974 107.397 161.437 107.848C160.917 108.281 160.354 108.637 159.747 108.914L165.207 117H160.839L156.419 109.876H154.313V117H150.387V98.436H155.795ZM155.509 101.66H154.313V106.678H155.587C156.454 106.678 157.156 106.583 157.693 106.392C158.23 106.201 158.62 105.915 158.863 105.534C159.106 105.135 159.227 104.659 159.227 104.104C159.227 103.515 159.088 103.047 158.811 102.7C158.551 102.336 158.144 102.076 157.589 101.92C157.052 101.747 156.358 101.66 155.509 101.66ZM174.701 117H170.775V101.712H165.731V98.436H179.745V101.712H174.701V117ZM193.554 111.852C193.554 112.944 193.285 113.897 192.748 114.712C192.21 115.527 191.43 116.159 190.408 116.61C189.402 117.043 188.172 117.26 186.716 117.26C186.074 117.26 185.442 117.217 184.818 117.13C184.211 117.043 183.622 116.922 183.05 116.766C182.495 116.593 181.966 116.385 181.464 116.142V112.476C182.348 112.857 183.258 113.213 184.194 113.542C185.147 113.854 186.092 114.01 187.028 114.01C187.669 114.01 188.18 113.923 188.562 113.75C188.96 113.577 189.246 113.343 189.42 113.048C189.61 112.753 189.706 112.415 189.706 112.034C189.706 111.566 189.541 111.167 189.212 110.838C188.9 110.509 188.475 110.205 187.938 109.928C187.4 109.633 186.785 109.321 186.092 108.992C185.658 108.784 185.19 108.541 184.688 108.264C184.185 107.969 183.7 107.614 183.232 107.198C182.781 106.765 182.408 106.245 182.114 105.638C181.819 105.031 181.672 104.303 181.672 103.454C181.672 102.345 181.923 101.4 182.426 100.62C182.946 99.8227 183.674 99.216 184.61 98.8C185.563 98.384 186.681 98.176 187.964 98.176C188.934 98.176 189.853 98.2887 190.72 98.514C191.604 98.7393 192.522 99.06 193.476 99.476L192.202 102.544C191.352 102.197 190.59 101.929 189.914 101.738C189.238 101.547 188.544 101.452 187.834 101.452C187.348 101.452 186.932 101.53 186.586 101.686C186.239 101.842 185.97 102.059 185.78 102.336C185.606 102.613 185.52 102.943 185.52 103.324C185.52 103.757 185.65 104.13 185.91 104.442C186.17 104.737 186.56 105.023 187.08 105.3C187.6 105.577 188.25 105.907 189.03 106.288C189.983 106.739 190.789 107.207 191.448 107.692C192.124 108.177 192.644 108.749 193.008 109.408C193.372 110.067 193.554 110.881 193.554 111.852Z" fill="url(#paint0_linear_113_11438)"/>
<path d="M109.5 73L106.625 80.5H98L105.188 85.5L102.312 93L109.5 88L116.688 93L113.812 85.5L121 80.5H112.375L109.5 73Z" fill="#31973B"/>
<path d="M16 83H86L108.5 30L130.5 83H195" stroke="black" stroke-width="6"/>
<line x1="142.63" y1="27.3611" x2="6.6305" y2="90.3611" stroke="white" stroke-width="3"/>
<line x1="147.63" y1="34.3611" x2="11.6305" y2="97.3611" stroke="white" stroke-width="3"/>
<defs>
<linearGradient id="paint0_linear_113_11438" x1="105" y1="93" x2="105" y2="117" gradientUnits="userSpaceOnUse">
<stop/>
<stop offset="1" stop-color="#31973B"/>
</linearGradient>
</defs>
</svg>
