<svg width="129" height="45" viewBox="0 0 129 45" fill="none" xmlns="http://www.w3.org/2000/svg">
<path d="M64.1392 31.0093L62.128 36.2558H56.0946L61.1225 39.7534L59.1113 44.9999L64.1392 41.5022L69.1671 44.9999L67.1559 39.7534L72.1838 36.2558H66.1503L64.1392 31.0093Z" id="star" fill="#31973B"/>
<path d="M64.1132 0L64.114 0.000293787L66.2893 5.66719L66.2889 5.6683L69.0092 12.755L65.3183 14.4761L64.1131 11.3364L62.3824 15.8451L57.0821 18.3167L64.1131 0.000293787L64.1132 0Z" id="line" fill="black"/>
<path d="M55.6463 22.057L60.9466 19.5855L59.5665 23.1806L54.2662 25.6522L55.6463 22.057Z" id="diagonal-line" fill="red"/>
<path d="M19.4938 44.9377L28.2281 40.8648H48.4267L52.8304 29.3926L58.1307 26.921L51.2812 44.7646V44.765L51.2148 44.9377H19.4938Z" id="line" fill="black"/>
<path d="M66.3181 17.0807L70.009 15.3596L70.97 17.8631L67.2792 19.5842L66.3181 17.0807Z" id="diagonal-line" fill="red"/>
<path d="M128.291 44.9377V40.8648H79.7995L71.9698 20.4677L68.279 22.1888L77.0098 44.9333V44.9377H128.291Z" id="line" fill="black"/>
<path d="M21.6427 40.8648H15.3129L6.57857 44.9377H12.9084L21.6427 40.8648Z" id="diagonal-line" fill="red"/>
<path d="M0 40.8648H8.72746L0 44.9345V40.8648Z" id="line" fill="black"/>
</svg>
