<svg width="97" height="38" viewBox="0 0 97 38" fill="none" xmlns="http://www.w3.org/2000/svg">
<path d="M48.5714 24.3713L46.9908 28.4946H42.249L46.2005 31.2435L44.6199 35.3668L48.5714 32.6179L52.5229 35.3668L50.9423 31.2435L54.8938 28.4946H50.152L48.5714 24.3713Z" fill="#31973B"/>
<path d="M52.8164 18.0058L55.8719 16.5872L62.201 31.828L96.5385 31.7917V35.1745H59.9458L52.8164 18.0058Z" fill="black"/>
<path d="M48.997 0.000468359L53.4347 10.6582L50.3793 12.0768L48.9607 8.69395L46.851 13.75L42.3042 15.8597L48.997 0.000468359Z" fill="black"/>
<path d="M0.982788 31.828H5.27497H8.03942L0.982788 35.1147V31.828Z" fill="black"/>
<path d="M23.2803 31.8281H35.5265L38.5575 24.6987L43.0679 22.6254L37.7573 35.1745L16.0417 35.2109L23.2803 31.8281Z" fill="black"/>
<path d="M51.2158 14.0992L54.2713 12.6806L55.0715 14.5866L52.0234 16.017L51.2158 14.0992Z" fill="#31973B"/>
<path d="M41.0309 18.8424L45.6771 16.6848L44.3409 19.6063L39.8123 21.716L41.0309 18.8424Z" fill="#31973B"/>
<path d="M5.92969 35.2109L13.0954 31.8717L18.006 31.8717L10.8766 35.2109L5.92969 35.2109Z" fill="#31973B"/>
</svg>
