<svg width="1374" height="786" viewBox="0 0 1374 786" fill="none" xmlns="http://www.w3.org/2000/svg">
<path d="M145.006 622.807C145.006 633.287 143.762 642.849 141.273 651.494C138.784 660.14 134.986 667.672 129.877 674.09C124.768 680.378 118.284 685.29 110.425 688.826L144.22 726.552H106.102L80.3626 695.114C79.9697 695.114 79.5767 695.114 79.1837 695.114C78.9217 695.114 78.5943 695.114 78.2013 695.114C66.8051 695.114 56.8499 693.411 48.3355 690.005C39.9521 686.469 33.0096 681.557 27.508 675.269C22.1374 668.85 18.0767 661.188 15.3259 652.28C12.7061 643.373 11.3962 633.483 11.3962 622.611C11.3962 608.071 13.754 595.43 18.4697 584.689C23.3163 573.948 30.6518 565.63 40.4761 559.735C50.4313 553.71 63.0719 550.697 78.3978 550.697C93.5927 550.697 106.102 553.71 115.927 559.735C125.751 565.63 133.021 574.013 137.736 584.886C142.583 595.627 145.006 608.267 145.006 622.807ZM42.6374 622.807C42.6374 632.632 43.8818 641.08 46.3706 648.154C48.8594 655.227 52.7237 660.664 57.9633 664.462C63.2029 668.261 69.9489 670.16 78.2013 670.16C86.7157 670.16 93.5272 668.261 98.6358 664.462C103.875 660.664 107.674 655.227 110.032 648.154C112.521 641.08 113.765 632.632 113.765 622.807C113.765 608.005 111.014 596.413 105.513 588.029C100.011 579.646 90.9729 575.454 78.3978 575.454C70.0144 575.454 63.2029 577.354 57.9633 581.152C52.7237 584.951 48.8594 590.387 46.3706 597.461C43.8818 604.534 42.6374 612.983 42.6374 622.807ZM288.225 643.635C288.225 653.328 286.063 662.104 281.741 669.964C277.549 677.692 271.13 683.849 262.485 688.434C253.971 692.887 243.164 695.114 230.065 695.114C211.464 695.114 197.317 690.398 187.624 680.967C177.931 671.405 173.084 658.83 173.084 643.242V552.858H202.753V638.723C202.753 650.25 205.111 658.371 209.827 663.087C214.542 667.803 221.55 670.16 230.851 670.16C237.4 670.16 242.705 669.047 246.766 666.82C250.827 664.593 253.774 661.122 255.608 656.406C257.573 651.691 258.555 645.731 258.555 638.526V552.858H288.225V643.635ZM375.044 693.149H311.186V676.251L328.28 668.392V577.616L311.186 569.756V552.858H375.044V569.756L357.949 577.616V668.392L375.044 676.251V693.149ZM523.326 693.149H485.601L424.493 587.047H423.708C423.839 590.322 423.97 593.662 424.101 597.068C424.232 600.342 424.362 603.683 424.493 607.088C424.755 610.363 424.952 613.703 425.083 617.109C425.214 620.384 425.345 623.724 425.476 627.13V693.149H398.95V552.858H436.479L497.39 657.978H497.979C497.848 654.703 497.717 651.494 497.586 648.35C497.455 645.076 497.324 641.866 497.193 638.723C497.193 635.448 497.128 632.239 496.997 629.095C496.866 625.82 496.735 622.545 496.604 619.271V552.858H523.326V693.149ZM611.249 693.149H547.391V676.251L564.485 668.392V577.616L547.391 569.756V552.858H611.249V569.756L594.154 577.616V668.392L611.249 676.251V693.149ZM732.808 648.459C732.808 657.939 730.475 666.215 725.811 673.287C721.146 680.359 714.375 685.851 705.497 689.764C696.77 693.525 686.086 695.406 673.447 695.406C667.879 695.406 662.387 695.03 656.97 694.278C651.704 693.525 646.588 692.472 641.622 691.118C636.807 689.613 632.218 687.807 627.854 685.701V653.876C635.528 657.187 643.428 660.271 651.553 663.13C659.829 665.839 668.03 667.193 676.155 667.193C681.723 667.193 686.162 666.441 689.472 664.936C692.933 663.431 695.416 661.4 696.92 658.842C698.575 656.284 699.403 653.35 699.403 650.039C699.403 645.976 697.974 642.516 695.115 639.657C692.406 636.798 688.72 634.164 684.055 631.757C679.39 629.199 674.049 626.49 668.03 623.632C664.268 621.826 660.205 619.719 655.842 617.312C651.478 614.754 647.265 611.669 643.202 608.058C639.29 604.296 636.055 599.782 633.497 594.515C630.939 589.249 629.66 582.929 629.66 575.556C629.66 565.926 631.842 557.725 636.205 550.954C640.719 544.032 647.039 538.766 655.165 535.155C663.44 531.543 673.146 529.738 684.281 529.738C692.707 529.738 700.682 530.716 708.206 532.672C715.88 534.628 723.855 537.412 732.131 541.023L721.071 567.656C713.698 564.647 707.077 562.315 701.209 560.659C695.34 559.004 689.322 558.177 683.152 558.177C678.939 558.177 675.328 558.854 672.318 560.208C669.309 561.562 666.977 563.443 665.321 565.851C663.817 568.258 663.064 571.117 663.064 574.427C663.064 578.189 664.193 581.424 666.45 584.133C668.707 586.691 672.093 589.174 676.607 591.581C681.121 593.989 686.763 596.848 693.535 600.158C701.811 604.07 708.808 608.133 714.525 612.346C720.394 616.559 724.908 621.525 728.068 627.243C731.228 632.961 732.808 640.033 732.808 648.459ZM804.269 552.858C822.346 552.858 835.51 556.788 843.763 564.648C852.146 572.376 856.338 583.052 856.338 596.675C856.338 602.831 855.421 608.726 853.587 614.358C851.753 619.86 848.675 624.838 844.352 629.291C840.16 633.614 834.593 637.02 827.651 639.509C820.708 641.997 812.128 643.242 801.911 643.242H789.14V693.149H759.47V552.858H804.269ZM802.697 577.223H789.14V618.878H798.964C804.596 618.878 809.443 618.157 813.504 616.716C817.565 615.275 820.708 612.983 822.935 609.839C825.162 606.695 826.275 602.635 826.275 597.657C826.275 590.715 824.376 585.606 820.577 582.331C816.779 578.925 810.819 577.223 802.697 577.223ZM1010.17 622.807C1010.17 633.68 1008.8 643.569 1006.05 652.477C1003.43 661.253 999.365 668.85 993.864 675.269C988.493 681.688 981.551 686.6 973.036 690.005C964.653 693.411 954.763 695.114 943.367 695.114C931.971 695.114 922.016 693.411 913.501 690.005C905.118 686.469 898.175 681.557 892.674 675.269C887.303 668.85 883.242 661.188 880.492 652.28C877.872 643.373 876.562 633.483 876.562 622.611C876.562 608.071 878.92 595.43 883.635 584.689C888.482 573.948 895.818 565.63 905.642 559.735C915.597 553.71 928.238 550.697 943.564 550.697C958.758 550.697 971.268 553.71 981.092 559.735C990.917 565.63 998.187 574.013 1002.9 584.886C1007.75 595.627 1010.17 608.267 1010.17 622.807ZM907.803 622.807C907.803 632.632 909.048 641.08 911.536 648.154C914.025 655.227 917.889 660.664 923.129 664.462C928.369 668.261 935.115 670.16 943.367 670.16C951.881 670.16 958.693 668.261 963.802 664.462C969.041 660.664 972.84 655.227 975.198 648.154C977.687 641.08 978.931 632.632 978.931 622.807C978.931 608.005 976.18 596.413 970.679 588.029C965.177 579.646 956.139 575.454 943.564 575.454C935.18 575.454 928.369 577.354 923.129 581.152C917.889 584.951 914.025 590.387 911.536 597.461C909.048 604.534 907.803 612.983 907.803 622.807ZM1080.1 552.858C1092.81 552.858 1103.29 554.43 1111.54 557.574C1119.79 560.587 1125.95 565.237 1130.01 571.525C1134.07 577.681 1136.1 585.475 1136.1 594.906C1136.1 601.325 1134.86 606.957 1132.37 611.804C1130.01 616.52 1126.8 620.58 1122.74 623.986C1118.81 627.261 1114.55 629.946 1109.97 632.042L1151.23 693.149H1118.22L1084.82 639.312H1068.9V693.149H1039.23V552.858H1080.1ZM1077.94 577.223H1068.9V615.144H1078.53C1085.08 615.144 1090.38 614.424 1094.44 612.983C1098.51 611.542 1101.45 609.381 1103.29 606.499C1105.12 603.486 1106.04 599.884 1106.04 595.692C1106.04 591.239 1104.99 587.702 1102.89 585.082C1100.93 582.331 1097.85 580.366 1093.66 579.187C1089.6 577.878 1084.36 577.223 1077.94 577.223ZM1222.98 693.149H1193.31V577.616H1155.19V552.858H1261.1V577.616H1222.98V693.149ZM1365.45 654.245C1365.45 662.497 1363.42 669.702 1359.36 675.858C1355.3 682.015 1349.4 686.796 1341.67 690.202C1334.08 693.477 1324.78 695.114 1313.77 695.114C1308.93 695.114 1304.15 694.787 1299.43 694.132C1294.85 693.477 1290.39 692.56 1286.07 691.381C1281.88 690.071 1277.88 688.499 1274.08 686.665V658.961C1280.76 661.842 1287.64 664.528 1294.71 667.017C1301.92 669.374 1309.06 670.553 1316.13 670.553C1320.98 670.553 1324.84 669.898 1327.72 668.588C1330.74 667.279 1332.9 665.51 1334.21 663.283C1335.65 661.057 1336.37 658.502 1336.37 655.62C1336.37 652.084 1335.12 649.071 1332.64 646.582C1330.28 644.093 1327.07 641.801 1323.01 639.705C1318.95 637.478 1314.3 635.12 1309.06 632.632C1305.78 631.06 1302.25 629.226 1298.45 627.13C1294.65 624.903 1290.98 622.218 1287.44 619.074C1284.04 615.799 1281.22 611.87 1279 607.285C1276.77 602.7 1275.66 597.199 1275.66 590.78C1275.66 582.397 1277.55 575.258 1281.35 569.363C1285.28 563.338 1290.78 558.753 1297.86 555.609C1305.06 552.465 1313.51 550.894 1323.2 550.894C1330.54 550.894 1337.48 551.745 1344.03 553.448C1350.71 555.151 1357.66 557.574 1364.86 560.718L1355.23 583.903C1348.81 581.283 1343.05 579.253 1337.94 577.812C1332.83 576.371 1327.59 575.651 1322.22 575.651C1318.55 575.651 1315.41 576.24 1312.79 577.419C1310.17 578.598 1308.14 580.235 1306.7 582.331C1305.39 584.427 1304.73 586.916 1304.73 589.798C1304.73 593.072 1305.72 595.889 1307.68 598.247C1309.65 600.473 1312.59 602.635 1316.52 604.731C1320.45 606.826 1325.37 609.315 1331.26 612.197C1338.46 615.603 1344.56 619.14 1349.53 622.807C1354.64 626.475 1358.57 630.798 1361.32 635.775C1364.07 640.753 1365.45 646.91 1365.45 654.245Z" fill="black"/>
<path d="M695.15 335.006L673.424 391.685H608.243L662.56 429.471L640.833 486.149L695.15 448.364L749.467 486.149L727.74 429.471L782.057 391.685H716.877L695.15 335.006Z" fill="#31973B"/>
<path d="M753.5 247.506L795.5 228.006L882.5 437.506L1354.5 437.006V483.506H851.5L753.5 247.506Z" fill="black"/>
<path d="M701 0.00643803L762 146.507L720 166.006L700.5 119.506L671.5 189.006L609 218.006L701 0.00643803Z" fill="black"/>
<path d="M41 437.506H100H138L41 482.685V437.506Z" fill="black"/>
<path d="M347.5 437.506H515.836L557.5 339.506L619.5 311.006L546.5 483.506L248 484.006L347.5 437.506Z" fill="black"/>
<path d="M731.5 193.806L773.5 174.306L784.5 200.507L742.6 220.168L731.5 193.806Z" id='lines1' fill="#31973B"/>
<path d="M591.5 259.006L655.366 229.347L637 269.507L574.75 298.506L591.5 259.006Z" id='lines2' fill="#31973B"/>
<path d="M109 484.006L207.5 438.107L275 438.107L177 484.006L109 484.006Z" id='star' fill="#31973B"/>
</svg>
