<svg width="419" height="419" viewBox="0 0 419 419" fill="none" xmlns="http://www.w3.org/2000/svg">
<path d="M377.713 10.1398L53.6602 8.01128L377.713 5.88276C379.468 5.87019 380.901 6.81504 380.92 7.99033C380.937 9.16772 379.529 10.1293 377.773 10.1377C377.757 10.1398 377.727 10.1398 377.713 10.1398Z" fill="#31973B" fill-opacity="0.33"/>
<path d="M403.976 16.1127L79.9258 14.4115L403.976 12.7083C405.378 12.6999 406.528 13.4562 406.538 14.3989C406.549 15.3354 405.42 16.1043 404.016 16.1127C404.008 16.1127 403.982 16.1127 403.976 16.1127Z" fill="#31973B" fill-opacity="0.33"/>
<path d="M377.713 22.0876L53.6602 20.8117L377.713 19.5317C378.764 19.5275 379.623 20.0973 379.627 20.8033C379.636 21.5073 378.787 22.0834 377.734 22.0876C377.729 22.0876 377.717 22.0876 377.713 22.0876Z" fill="#31973B" fill-opacity="0.33"/>
<path d="M333.235 28.9089L9.18652 27.2057L333.237 25.5024C334.641 25.4941 335.787 26.2503 335.799 27.1931C335.81 28.1296 334.68 28.8984 333.277 28.9068C333.266 28.9089 333.243 28.9089 333.235 28.9089Z" fill="#31973B" fill-opacity="0.33"/>
<path d="M377.713 34.4523L53.6602 33.6059L377.713 32.7553C378.412 32.7511 378.984 33.1324 378.986 33.5975C378.988 34.0689 378.423 34.4523 377.721 34.4523H377.713Z" fill="#31973B" fill-opacity="0.33"/>
<path d="M414.564 41.7031L90.5156 40.0019L414.564 38.2987C415.97 38.2903 417.116 39.0466 417.126 39.9893C417.139 40.93 416.009 41.6989 414.606 41.7031C414.595 41.7031 414.574 41.7031 414.564 41.7031Z" fill="#31973B" fill-opacity="0.33"/>
<path d="M336.202 47.678L12.1514 46.4001L336.202 45.1242C337.256 45.12 338.112 45.6878 338.119 46.3917C338.127 47.0998 337.277 47.6717 336.225 47.6759C336.219 47.678 336.206 47.678 336.202 47.678Z" fill="#31973B" fill-opacity="0.33"/>
<path d="M400.269 54.5035L76.2188 52.7961L400.267 51.0929C401.673 51.0887 402.819 51.8408 402.829 52.7835C402.842 53.7242 401.713 54.4909 400.309 54.5014C400.301 54.5035 400.28 54.5035 400.269 54.5035Z" fill="#31973B" fill-opacity="0.33"/>
<path d="M377.713 60.0469L53.6602 59.1963L377.713 58.3458C378.412 58.3458 378.984 58.727 378.986 59.1921C378.988 59.6635 378.423 60.0469 377.721 60.0469H377.713Z" fill="#31973B" fill-opacity="0.33"/>
<path d="M404.716 67.2977L80.666 65.5923L404.714 63.8933C406.12 63.8849 407.266 64.6433 407.277 65.584C407.289 66.5204 406.16 67.2893 404.756 67.2977C404.748 67.2977 404.727 67.2977 404.716 67.2977Z" fill="#31973B" fill-opacity="0.33"/>
<path d="M352.72 73.2684L28.6699 71.9905L352.722 70.7146C353.774 70.7104 354.633 71.2803 354.637 71.9863C354.646 72.6902 353.799 73.2663 352.743 73.2663C352.737 73.2684 352.725 73.2684 352.72 73.2684Z" fill="#31973B" fill-opacity="0.33"/>
<path d="M376.442 80.0919L52.3916 78.3907L376.442 76.6875C377.846 76.6791 378.992 77.4354 379.004 78.374C379.017 79.3146 377.888 80.0835 376.484 80.0919C376.473 80.0919 376.448 80.0919 376.442 80.0919Z" fill="#31973B" fill-opacity="0.33"/>
<path d="M325.927 85.6415L1.87891 84.7909L325.929 83.9404C326.633 83.9362 327.201 84.3175 327.205 84.7868C327.207 85.2581 326.64 85.6373 325.938 85.6415H325.927Z" fill="#31973B" fill-opacity="0.33"/>
<path d="M376.442 92.8881L52.3916 91.1849L376.442 89.4816C377.846 89.4733 378.992 90.2295 379.004 91.1723C379.017 92.113 377.888 92.8776 376.484 92.886C376.473 92.8881 376.448 92.8881 376.442 92.8881Z" fill="#31973B" fill-opacity="0.33"/>
<path d="M403.128 98.8609L79.0771 97.5851L403.128 96.3051C404.179 96.3051 405.038 96.8707 405.047 97.5767C405.053 98.2806 404.204 98.8568 403.151 98.8609C403.151 98.8609 403.132 98.8609 403.128 98.8609Z" fill="#31973B" fill-opacity="0.33"/>
<path d="M336.729 105.686L12.6787 103.981L336.729 102.278C338.133 102.274 339.279 103.026 339.291 103.969C339.302 104.909 338.173 105.674 336.771 105.686C336.761 105.686 336.738 105.686 336.729 105.686Z" fill="#31973B" fill-opacity="0.33"/>
<path d="M377.713 112.508L53.6602 110.381L377.713 108.253C379.468 108.24 380.901 109.185 380.92 110.36C380.937 111.536 379.529 112.497 377.773 112.508C377.757 112.508 377.727 112.508 377.713 112.508Z" fill="#31973B" fill-opacity="0.33"/>
<path d="M403.976 118.483L79.9258 116.779L403.976 115.074C405.378 115.066 406.528 115.822 406.538 116.765C406.549 117.705 405.42 118.474 404.016 118.483C404.008 118.483 403.982 118.483 403.976 118.483Z" fill="#31973B" fill-opacity="0.33"/>
<path d="M377.713 124.451L53.6602 123.176L377.713 121.9C378.764 121.895 379.623 122.465 379.627 123.171C379.636 123.875 378.787 124.447 377.734 124.451C377.729 124.451 377.717 124.451 377.713 124.451Z" fill="#31973B" fill-opacity="0.33"/>
<path d="M333.235 131.277L9.18652 129.576L333.237 127.873C334.641 127.864 335.787 128.616 335.799 129.563C335.81 130.504 334.68 131.269 333.277 131.277C333.266 131.277 333.243 131.277 333.235 131.277Z" fill="#31973B" fill-opacity="0.33"/>
<path d="M377.713 136.827L53.6602 135.97L377.713 135.123C378.412 135.119 378.984 135.5 378.986 135.97C378.988 136.441 378.423 136.82 377.721 136.824L377.713 136.827Z" fill="#31973B" fill-opacity="0.33"/>
<path d="M414.564 144.073L90.5156 142.37L414.564 140.667C415.97 140.658 417.116 141.415 417.126 142.357C417.139 143.298 416.009 144.063 414.606 144.071C414.595 144.073 414.574 144.073 414.564 144.073Z" fill="#31973B" fill-opacity="0.33"/>
<path d="M336.202 150.042L12.1514 148.766L336.202 147.492C337.256 147.484 338.112 148.054 338.119 148.76C338.127 149.464 337.277 150.04 336.225 150.04C336.219 150.042 336.206 150.042 336.202 150.042Z" fill="#31973B" fill-opacity="0.33"/>
<path d="M400.269 156.867L76.2188 155.164L400.267 153.465C401.673 153.452 402.819 154.209 402.829 155.152C402.842 156.092 401.713 156.861 400.309 156.865C400.301 156.867 400.28 156.867 400.269 156.867Z" fill="#31973B" fill-opacity="0.33"/>
<path d="M377.713 162.415L53.6602 161.564L377.713 160.714C378.412 160.71 378.984 161.091 378.986 161.56C378.988 162.032 378.423 162.415 377.721 162.415H377.713Z" fill="#31973B" fill-opacity="0.33"/>
<path d="M404.716 169.666L80.666 167.965L404.714 166.259C406.12 166.255 407.266 167.007 407.277 167.95C407.289 168.891 406.16 169.659 404.756 169.668C404.748 169.666 404.727 169.666 404.716 169.666Z" fill="#31973B" fill-opacity="0.33"/>
<path d="M352.72 175.636L28.6699 174.361L352.722 173.085C353.774 173.081 354.633 173.65 354.637 174.352C354.646 175.056 353.799 175.632 352.743 175.636C352.737 175.636 352.725 175.636 352.72 175.636Z" fill="#31973B" fill-opacity="0.33"/>
<path d="M376.442 182.462L52.3916 180.759L376.442 179.055C377.846 179.047 378.992 179.803 379.004 180.746C379.017 181.683 377.888 182.451 376.484 182.46C376.473 182.462 376.448 182.462 376.442 182.462Z" fill="#31973B" fill-opacity="0.33"/>
<path d="M325.927 188.005L1.87891 187.155L325.929 186.304C326.633 186.304 327.201 186.685 327.205 187.151C327.207 187.622 326.64 188.005 325.938 188.005H325.927Z" fill="#31973B" fill-opacity="0.33"/>
<path d="M376.442 195.256L52.3916 193.555L376.442 191.852C377.846 191.843 378.992 192.6 379.004 193.542C379.017 194.479 377.888 195.25 376.484 195.256C376.473 195.256 376.448 195.256 376.442 195.256Z" fill="#31973B" fill-opacity="0.33"/>
<path d="M403.128 201.227L79.0771 199.953L403.128 198.677C404.179 198.673 405.038 199.239 405.047 199.943C405.053 200.651 404.204 201.223 403.151 201.227C403.151 201.227 403.132 201.227 403.128 201.227Z" fill="#31973B" fill-opacity="0.33"/>
<path d="M336.729 208.052L12.6787 206.349L336.729 204.646C338.133 204.638 339.279 205.394 339.291 206.337C339.302 207.277 338.173 208.046 336.771 208.05C336.761 208.052 336.738 208.052 336.729 208.052Z" fill="#31973B" fill-opacity="0.33"/>
<path d="M377.713 215.205L53.6602 213.076L377.713 210.948C379.468 210.935 380.901 211.88 380.92 213.055C380.937 214.235 379.529 215.194 377.773 215.203C377.757 215.205 377.727 215.205 377.713 215.205Z" fill="#31973B" fill-opacity="0.33"/>
<path d="M403.976 221.178L79.9258 219.476L403.976 217.773C405.378 217.765 406.528 218.521 406.538 219.464C406.549 220.4 405.42 221.169 404.016 221.178C404.008 221.178 403.982 221.178 403.976 221.178Z" fill="#31973B" fill-opacity="0.33"/>
<path d="M377.713 227.152L53.6602 225.877L377.713 224.597C378.764 224.592 379.623 225.162 379.627 225.868C379.636 226.572 378.787 227.148 377.734 227.152C377.729 227.152 377.717 227.152 377.713 227.152Z" fill="#31973B" fill-opacity="0.33"/>
<path d="M333.235 233.974L9.18652 232.271L333.237 230.567C334.641 230.559 335.787 231.315 335.799 232.258C335.81 233.194 334.68 233.963 333.277 233.972C333.266 233.974 333.243 233.974 333.235 233.974Z" fill="#31973B" fill-opacity="0.33"/>
<path d="M377.713 239.521L53.6602 238.671L377.713 237.82C378.412 237.816 378.984 238.197 378.986 238.662C378.988 239.138 378.423 239.521 377.721 239.521H377.713Z" fill="#31973B" fill-opacity="0.33"/>
<path d="M414.564 246.768L90.5156 245.065L414.564 243.362C415.97 243.353 417.116 244.109 417.126 245.052C417.139 245.993 416.009 246.762 414.606 246.766C414.595 246.768 414.574 246.768 414.564 246.768Z" fill="#31973B" fill-opacity="0.33"/>
<path d="M336.202 252.743L12.1514 251.465L336.202 250.189C337.256 250.185 338.112 250.755 338.119 251.457C338.127 252.165 337.277 252.737 336.225 252.741C336.219 252.743 336.206 252.743 336.202 252.743Z" fill="#31973B" fill-opacity="0.33"/>
<path d="M400.269 259.566L76.2188 257.861L400.267 256.158C401.673 256.154 402.819 256.906 402.829 257.848C402.842 258.789 401.713 259.554 400.309 259.566C400.301 259.566 400.28 259.566 400.269 259.566Z" fill="#31973B" fill-opacity="0.33"/>
<path d="M377.713 265.112L53.6602 264.261L377.713 263.411C378.412 263.411 378.984 263.792 378.986 264.257C378.988 264.728 378.423 265.112 377.721 265.112H377.713Z" fill="#31973B" fill-opacity="0.33"/>
<path d="M404.716 272.363L80.668 270.659L404.716 268.956C406.122 268.948 407.268 269.704 407.278 270.647C407.291 271.583 406.162 272.352 404.758 272.36C404.748 272.363 404.727 272.363 404.716 272.363Z" fill="#31973B" fill-opacity="0.33"/>
<path d="M352.72 278.331L28.668 277.055L352.72 275.784C353.772 275.775 354.631 276.345 354.635 277.051C354.644 277.755 353.797 278.331 352.741 278.331C352.737 278.331 352.725 278.331 352.72 278.331Z" fill="#31973B" fill-opacity="0.33"/>
<path d="M376.442 285.157L52.3916 283.453L376.442 281.75C377.846 281.742 378.992 282.498 379.004 283.437C379.017 284.382 377.888 285.146 376.484 285.155C376.473 285.157 376.448 285.157 376.442 285.157Z" fill="#31973B" fill-opacity="0.33"/>
<path d="M325.927 290.706L1.87891 289.854L325.929 289.003C326.633 288.999 327.201 289.38 327.205 289.85C327.207 290.321 326.64 290.7 325.938 290.704L325.927 290.706Z" fill="#31973B" fill-opacity="0.33"/>
<path d="M376.442 297.953L52.3916 296.25L376.442 294.547C377.846 294.542 378.992 295.294 379.004 296.237C379.017 297.178 377.888 297.943 376.484 297.951C376.473 297.953 376.448 297.953 376.442 297.953Z" fill="#31973B" fill-opacity="0.33"/>
<path d="M403.128 303.926L79.0771 302.65L403.128 301.374C404.179 301.37 405.038 301.936 405.047 302.642C405.053 303.346 404.204 303.922 403.151 303.926C403.151 303.926 403.132 303.926 403.128 303.926Z" fill="#31973B" fill-opacity="0.33"/>
<path d="M336.729 310.751L12.6787 309.046L336.729 307.343C338.133 307.339 339.279 308.091 339.291 309.033C339.302 309.974 338.173 310.743 336.771 310.751C336.761 310.751 336.738 310.751 336.729 310.751Z" fill="#31973B" fill-opacity="0.33"/>
<path d="M377.713 317.573L53.6602 315.444L377.713 313.316C379.468 313.303 380.901 314.248 380.92 315.423C380.937 316.599 379.529 317.56 377.773 317.571C377.757 317.573 377.727 317.573 377.713 317.573Z" fill="#31973B" fill-opacity="0.33"/>
<path d="M403.976 323.548L79.9258 321.844L403.976 320.139C405.378 320.135 406.528 320.887 406.538 321.83C406.549 322.772 405.42 323.539 404.016 323.548C404.008 323.548 403.982 323.548 403.976 323.548Z" fill="#31973B" fill-opacity="0.33"/>
<path d="M377.713 329.516L53.6602 328.24L377.713 326.965C378.764 326.96 379.623 327.53 379.627 328.236C379.636 328.94 378.787 329.512 377.734 329.516C377.729 329.516 377.717 329.516 377.713 329.516Z" fill="#31973B" fill-opacity="0.33"/>
<path d="M333.235 336.342L9.18652 334.639L333.237 332.935C334.641 332.927 335.787 333.683 335.799 334.626C335.81 335.567 334.68 336.331 333.277 336.34C333.266 336.342 333.243 336.342 333.235 336.342Z" fill="#31973B" fill-opacity="0.33"/>
<path d="M377.713 341.889L53.6602 341.035L377.713 340.188C378.412 340.184 378.984 340.565 378.986 341.035C378.988 341.506 378.423 341.885 377.721 341.889H377.713Z" fill="#31973B" fill-opacity="0.33"/>
<path d="M414.564 349.136L90.5156 347.435L414.564 345.732C415.97 345.723 417.116 346.48 417.126 347.422C417.139 348.363 416.009 349.128 414.606 349.136C414.595 349.136 414.574 349.136 414.564 349.136Z" fill="#31973B" fill-opacity="0.33"/>
<path d="M336.202 355.107L12.1514 353.835L336.202 352.559C337.256 352.555 338.112 353.121 338.119 353.827C338.127 354.531 337.277 355.107 336.225 355.107C336.219 355.107 336.206 355.107 336.202 355.107Z" fill="#31973B" fill-opacity="0.33"/>
<path d="M400.269 361.932L76.2188 360.229L400.267 358.53C401.673 358.517 402.819 359.274 402.829 360.216C402.842 361.157 401.713 361.926 400.309 361.93C400.301 361.932 400.28 361.932 400.269 361.932Z" fill="#31973B" fill-opacity="0.33"/>
<path d="M377.713 367.48L53.6602 366.629L377.713 365.779C378.412 365.774 378.984 366.156 378.986 366.625C378.988 367.096 378.423 367.48 377.721 367.48H377.713Z" fill="#31973B" fill-opacity="0.33"/>
<path d="M404.716 374.731L80.668 373.027L404.716 371.322C406.122 371.318 407.268 372.07 407.278 373.013C407.291 373.953 406.162 374.722 404.758 374.731C404.748 374.731 404.727 374.731 404.716 374.731Z" fill="#31973B" fill-opacity="0.33"/>
<path d="M352.72 380.701L28.668 379.425L352.72 378.15C353.772 378.145 354.631 378.715 354.635 379.417C354.644 380.121 353.797 380.697 352.741 380.701C352.737 380.701 352.725 380.701 352.72 380.701Z" fill="#31973B" fill-opacity="0.33"/>
<path d="M376.442 387.527L52.3916 385.824L376.442 384.12C377.846 384.112 378.992 384.868 379.004 385.811C379.017 386.748 377.888 387.516 376.484 387.525C376.473 387.527 376.448 387.527 376.442 387.527Z" fill="#31973B" fill-opacity="0.33"/>
<path d="M325.927 393.07L1.87891 392.22L325.929 391.369C326.633 391.369 327.201 391.75 327.205 392.215C327.207 392.687 326.64 393.07 325.938 393.07H325.927Z" fill="#31973B" fill-opacity="0.33"/>
<path d="M376.442 400.321L52.3916 398.618L376.442 396.915C377.846 396.906 378.992 397.662 379.004 398.605C379.017 399.542 377.888 400.311 376.484 400.319C376.473 400.321 376.448 400.321 376.442 400.321Z" fill="#31973B" fill-opacity="0.33"/>
<path d="M403.128 406.296L79.0771 405.02L403.128 403.744C404.179 403.74 405.038 404.306 405.047 405.01C405.053 405.718 404.204 406.29 403.151 406.298C403.151 406.298 403.132 406.296 403.128 406.296Z" fill="#31973B" fill-opacity="0.33"/>
<path d="M336.729 413.115L12.6787 411.414L336.729 409.711C338.133 409.702 339.279 410.459 339.291 411.401C339.302 412.342 338.173 413.111 336.771 413.115C336.761 413.115 336.738 413.115 336.729 413.115Z" fill="#31973B" fill-opacity="0.33"/>
</svg>
