<svg width="1035" height="946" viewBox="0 0 1035 946" fill="none" xmlns="http://www.w3.org/2000/svg">
<path opacity="0.2885" d="M0 388.511V419.404L258.616 144.883L0 388.511Z" fill="#3B3B3B"/>
<path opacity="0.969" d="M0 759.333V790.909L264.348 510.302L0 759.333Z" fill="#3B3B3B"/>
<path opacity="0.4954" d="M0 617.341V670.222L442.725 200.27L0 617.341Z" fill="#3B3B3B"/>
<path opacity="0.4337" d="M0 462.293V517.929L465.777 23.5063L0 462.293Z" fill="#3B3B3B"/>
<path opacity="0.0392" d="M0 889.244V941.067L433.826 480.559L0 889.244Z" fill="#3B3B3B"/>
<path opacity="0.616" d="M0 499.873V516.438L138.668 369.243L0 499.873Z" fill="#3B3B3B"/>
<path opacity="0.8702" d="M0 884.271V972.587L739.342 187.772L0 884.271Z" fill="#3B3B3B"/>
<path opacity="0.3507" d="M56.0176 1043.63L828.624 223.503L0 1004.11V1043.63H56.0176Z" fill="#3B3B3B"/>
<path opacity="0.97" d="M433.98 1043.63L778.012 678.437L390.359 1043.63H433.98Z" fill="#3B3B3B"/>
<path opacity="0.5539" d="M0 676.374V739.159L525.621 181.209L0 676.374Z" fill="#3B3B3B"/>
<path opacity="0.2683" d="M0 69.6895L92.9741 -29H71.4526L0 38.3105V69.6895Z" fill="#3B3B3B"/>
<path opacity="0.7683" d="M0 502.412V516.875L121.072 388.357L0 502.412Z" fill="#3B3B3B"/>
<path opacity="0.3092" d="M0 205.375V228.621L194.607 22.0479L0 205.375Z" fill="#3B3B3B"/>
<path opacity="0.5013" d="M0 470.649V502.199L264.128 221.825L0 470.649Z" fill="#3B3B3B"/>
<path opacity="0.4661" d="M0 376.575L382.076 -29H378.768L0 327.819V376.575Z" fill="#3B3B3B"/>
<path opacity="0.4027" d="M0 630.103V665.952L300.128 347.367L0 630.103Z" fill="#3B3B3B"/>
<path opacity="0.9177" d="M0 58.5411L82.4695 -29H52.8315L0 20.7701V58.5411Z" fill="#3B3B3B"/>
<path opacity="0.1123" d="M127.083 1043.63L645.373 493.458L61.3623 1043.63H127.083Z" fill="#3B3B3B"/>
<path opacity="0.4692" d="M191.644 1043.63L624.922 583.703L136.708 1043.63H191.644Z" fill="#3B3B3B"/>
<path opacity="0.5261" d="M0 479.245V485.982L56.3954 426.121L0 479.245Z" fill="#3B3B3B"/>
<path opacity="0.8887" d="M0 334.77V358.206L196.203 149.935L0 334.77Z" fill="#3B3B3B"/>
<path opacity="0.7299" d="M0 486.57L485.699 -29H476.781L0 420.153V486.57Z" fill="#3B3B3B"/>
<path opacity="0.9537" d="M0 867.742V902.922L294.521 590.288L0 867.742Z" fill="#3B3B3B"/>
<path opacity="0.2883" d="M682.855 1043.63L1015.33 690.702L640.699 1043.63H682.855Z" fill="#3B3B3B"/>
<path opacity="0.3238" d="M0 750.583V790.666L335.567 434.461L0 750.583Z" fill="#3B3B3B"/>
<path opacity="0.2494" d="M96.8236 1043.63L781.008 317.361L10.0708 1043.63H96.8236Z" fill="#3B3B3B"/>
<path opacity="0.0238" d="M0 271.618V288.764L143.549 136.386L0 271.618Z" fill="#3B3B3B"/>
<path opacity="0.0481" d="M279.035 1043.63L914.809 368.75L198.421 1043.63H279.035Z" fill="#3B3B3B"/>
<path opacity="0.1454" d="M0 82.6609V88.7376L50.8738 34.7368L0 82.6609Z" fill="#3B3B3B"/>
<path opacity="0.1411" d="M77.7091 1043.63L499.842 595.534L24.1846 1043.63H77.7091Z" fill="#3B3B3B"/>
<path opacity="0.049" d="M76.1517 1043.63L614.413 472.259L7.89844 1043.63H76.1517Z" fill="#3B3B3B"/>
<path opacity="0.9727" d="M0 947.932V1043.62L801.088 193.264L0 947.932Z" fill="#3B3B3B"/>
<path opacity="0.8459" d="M386.567 1043.63L795.702 609.333L334.691 1043.63H386.567Z" fill="#3B3B3B"/>
<path opacity="0.4653" d="M0 423.661V437.555L116.338 314.063L0 423.661Z" fill="#3B3B3B"/>
<path opacity="0.1932" d="M0 798.661V845.107L388.822 432.369L0 798.661Z" fill="#3B3B3B"/>
<path opacity="0.2439" d="M459.425 1043.63L972.938 498.533L394.312 1043.63H459.425Z" fill="#3B3B3B"/>
<path opacity="0.3735" d="M131.294 1043.63L608.243 537.345L70.8193 1043.63H131.294Z" fill="#3B3B3B"/>
<path opacity="0.5902" d="M486.635 1043.63L738.435 776.342L454.708 1043.63H486.635Z" fill="#3B3B3B"/>
<path opacity="0.3271" d="M0 692.256V748.448L470.418 249.094L0 692.256Z" fill="#3B3B3B"/>
<path opacity="0.4885" d="M0 367.814L373.824 -29H365.057L0 314.904V367.814Z" fill="#3B3B3B"/>
<path opacity="0.6059" d="M0 535.007V591.369L471.84 90.5081L0 535.007Z" fill="#3B3B3B"/>
<path opacity="0.083" d="M0 592.969V617.506L205.42 399.453L0 592.969Z" fill="#3B3B3B"/>
<path opacity="0.9501" d="M414.462 1043.63L927.348 499.2L349.431 1043.63H414.462Z" fill="#3B3B3B"/>
<path opacity="0.9781" d="M265.507 1043.63L645.454 640.311L217.33 1043.63H265.507Z" fill="#3B3B3B"/>
<path opacity="0.7639" d="M0 874.979V933.709L491.677 411.793L0 874.979Z" fill="#3B3B3B"/>
<path opacity="0.1426" d="M0 557.556V605.599L402.198 178.663L0 557.556Z" fill="#3B3B3B"/>
<path opacity="0.3621" d="M353.427 1043.63L641.957 737.352L316.841 1043.63H353.427Z" fill="#3B3B3B"/>
<path opacity="0.3695" d="M0 446.72L448.158 -29H439.768L0 385.286V446.72Z" fill="#3B3B3B"/>
<path opacity="0.0291" d="M0 732.793V804.466L600.01 167.548L0 732.793Z" fill="#3B3B3B"/>
<path opacity="0.3319" d="M0 414.316V462.996L407.516 30.4142L0 414.316Z" fill="#3B3B3B"/>
<path opacity="0.4098" d="M0 691.514V748.086L473.591 245.37L0 691.514Z" fill="#3B3B3B"/>
<path opacity="0.399" d="M0 230.822L244.768 -29H227.329L0 185.154V230.822Z" fill="#3B3B3B"/>
<path opacity="0.4364" d="M526.047 1043.63L944.216 599.742L473.025 1043.63H526.047Z" fill="#3B3B3B"/>
<path opacity="0.2573" d="M0 363.541V386.061L188.546 185.923L0 363.541Z" fill="#3B3B3B"/>
<path opacity="0.5306" d="M0 426.988V467.824L341.851 104.951L0 426.988Z" fill="#3B3B3B"/>
<path opacity="0.7446" d="M228.525 1043.63L852.691 381.071L149.38 1043.63H228.525Z" fill="#3B3B3B"/>
<path opacity="0.692" d="M83.9146 1043.63L508.701 592.713L30.0518 1043.63H83.9146Z" fill="#3B3B3B"/>
<path opacity="0.6259" d="M0 792.696V862.451L583.958 242.578L0 792.696Z" fill="#3B3B3B"/>
<path opacity="0.7365" d="M355.447 1043.63L711.074 666.126L310.354 1043.63H355.447Z" fill="#3B3B3B"/>
<path opacity="0.7727" d="M0 89.2961V101.906L105.564 -10.1489L0 89.2961Z" fill="#3B3B3B"/>
<path opacity="0.0892" d="M0 290.124V324.196L285.219 21.4337L0 290.124Z" fill="#3B3B3B"/>
<path opacity="0.2521" d="M0 89.0923L111.254 -29H107.489L0 72.2581V89.0923Z" fill="#3B3B3B"/>
<path opacity="0.862" d="M0 482.835V503.963L176.869 316.215L0 482.835Z" fill="#3B3B3B"/>
<path opacity="0.4199" d="M0 828.707V883.532L458.981 396.326L0 828.707Z" fill="#3B3B3B"/>
<path opacity="0.6315" d="M0 754.577V768.843L119.423 642.075L0 754.577Z" fill="#3B3B3B"/>
<path opacity="0.9297" d="M0 788.607V817.292L240.149 562.375L0 788.607Z" fill="#3B3B3B"/>
<path opacity="0.6229" d="M0 414.29V449.18L292.084 139.135L0 414.29Z" fill="#3B3B3B"/>
<path opacity="0.0185" d="M468.615 1043.63L813.892 677.117L424.836 1043.63H468.615Z" fill="#3B3B3B"/>
<path opacity="0.434" d="M534.345 1043.63L1034.25 512.979L470.96 1043.63H534.345Z" fill="#3B3B3B"/>
<path opacity="0.4701" d="M0 606.032V684.662L658.239 -14.0644L0 606.032Z" fill="#3B3B3B"/>
<path opacity="0.7031" d="M0 78.1871L100.979 -29H95.7234L0 61.1755V78.1871Z" fill="#3B3B3B"/>
<path opacity="0.3865" d="M210.009 1043.63L695.83 527.928L148.408 1043.63H210.009Z" fill="#3B3B3B"/>
<path opacity="0.6061" d="M0 556.144V615.446L496.446 88.4682L0 556.144Z" fill="#3B3B3B"/>
<path opacity="0.2029" d="M0 218.579L233.235 -29H219.574L0 177.849V218.579Z" fill="#3B3B3B"/>
<path opacity="0.9988" d="M0 442.003V484.471L355.522 107.083L0 442.003Z" fill="#3B3B3B"/>
<path opacity="0.019" d="M0 424.837V434.011L76.7968 352.494L0 424.837Z" fill="#3B3B3B"/>
<path opacity="0.3402" d="M97.2932 1043.63L813.951 282.891L6.42139 1043.63H97.2932Z" fill="#3B3B3B"/>
<path opacity="0.9781" d="M0 903.789V970.216L556.123 379.889L0 903.789Z" fill="#3B3B3B"/>
<path opacity="0.5083" d="M0 965.223V1026.05L509.178 485.552L0 965.223Z" fill="#3B3B3B"/>
<path opacity="0.9608" d="M250.546 1043.63L801.371 458.923L180.7 1043.63H250.546Z" fill="#3B3B3B"/>
<path opacity="0.3909" d="M0 728.832V774.466L382.059 368.908L0 728.832Z" fill="#3B3B3B"/>
<path opacity="0.636" d="M0 365.075L371.243 -29H357.687L0 307.96V365.075Z" fill="#3B3B3B"/>
<path opacity="0.8847" d="M413.222 1043.63L720.219 717.749L374.295 1043.63H413.222Z" fill="#3B3B3B"/>
<path opacity="0.7385" d="M0 637.802V677.419L331.645 325.376L0 637.802Z" fill="#3B3B3B"/>
</svg>
